<svg xmlns="http://www.w3.org/2000/svg" width="367.5" viewBox="0 0 367.5 60" height="60" version="1.0"><defs><clipPath id="a"><path d="M 8 0.0390625 L 17 0.0390625 L 17 11 L 8 11 Z M 8 0.0390625"/></clipPath><clipPath id="b"><path d="M 5 2 L 36 2 L 36 59.957031 L 5 59.957031 Z M 5 2"/></clipPath><clipPath id="c"><path d="M 49 0.0390625 L 58 0.0390625 L 58 11 L 49 11 Z M 49 0.0390625"/></clipPath><clipPath id="d"><path d="M 58 20 L 65.195312 20 L 65.195312 30 L 58 30 Z M 58 20"/></clipPath><clipPath id="e"><path d="M 30 2 L 60 2 L 60 59.957031 L 30 59.957031 Z M 30 2"/></clipPath><clipPath id="f"><path d="M 17.84375 0.078125 L 47.511719 0.078125 L 47.511719 40.996094 L 17.84375 40.996094 Z M 17.84375 0.078125"/></clipPath></defs><g><g><g><path d="M 16.625 -29.078125 C 18.664062 -29.078125 20.65625 -28.679688 22.59375 -27.890625 C 24.539062 -27.109375 26.21875 -26.015625 27.625 -24.609375 L 24.78125 -21.046875 C 23.726562 -22.179688 22.484375 -23.078125 21.046875 -23.734375 C 19.617188 -24.398438 18.171875 -24.734375 16.703125 -24.734375 C 13.804688 -24.734375 11.359375 -23.742188 9.359375 -21.765625 C 7.367188 -19.796875 6.375 -17.394531 6.375 -14.5625 C 6.375 -11.6875 7.367188 -9.265625 9.359375 -7.296875 C 11.359375 -5.328125 13.804688 -4.34375 16.703125 -4.34375 C 19.710938 -4.34375 22.40625 -5.488281 24.78125 -7.78125 L 27.671875 -4.546875 C 26.179688 -3.085938 24.441406 -1.929688 22.453125 -1.078125 C 20.472656 -0.222656 18.476562 0.203125 16.46875 0.203125 C 12.21875 0.203125 8.644531 -1.207031 5.75 -4.03125 C 2.851562 -6.851562 1.40625 -10.347656 1.40625 -14.515625 C 1.40625 -18.628906 2.875 -22.082031 5.8125 -24.875 C 8.75 -27.675781 12.351562 -29.078125 16.625 -29.078125 Z M 16.625 -29.078125" transform="translate(80.892 44.41)"/></g></g></g><g><g><g><path d="M 5.828125 -24.875 C 8.773438 -27.675781 12.414062 -29.078125 16.75 -29.078125 C 21.082031 -29.078125 24.722656 -27.675781 27.671875 -24.875 C 30.617188 -22.082031 32.09375 -18.613281 32.09375 -14.46875 C 32.09375 -10.332031 30.617188 -6.851562 27.671875 -4.03125 C 24.722656 -1.207031 21.082031 0.203125 16.75 0.203125 C 12.414062 0.203125 8.773438 -1.207031 5.828125 -4.03125 C 2.878906 -6.851562 1.40625 -10.332031 1.40625 -14.46875 C 1.40625 -18.613281 2.878906 -22.082031 5.828125 -24.875 Z M 16.796875 -24.6875 C 13.921875 -24.6875 11.460938 -23.703125 9.421875 -21.734375 C 7.390625 -19.765625 6.375 -17.34375 6.375 -14.46875 C 6.375 -11.601562 7.398438 -9.171875 9.453125 -7.171875 C 11.503906 -5.171875 13.945312 -4.171875 16.78125 -4.171875 C 19.625 -4.171875 22.050781 -5.171875 24.0625 -7.171875 C 26.082031 -9.171875 27.09375 -11.601562 27.09375 -14.46875 C 27.09375 -17.34375 26.082031 -19.765625 24.0625 -21.734375 C 22.050781 -23.703125 19.628906 -24.6875 16.796875 -24.6875 Z M 16.796875 -24.6875" transform="translate(109.709 44.41)"/></g></g></g><g><g><g><path d="M 8.6875 0 L 3.8125 0 L 3.8125 -28.953125 L 8.6875 -28.953125 Z M 8.6875 0" transform="translate(143.197 44.41)"/></g></g></g><g><g><g><path d="M 28.90625 0 L 24.109375 0 L 8.6875 -20.765625 L 8.6875 0 L 3.8125 0 L 3.8125 -28.953125 L 8.609375 -28.953125 L 24.109375 -8.140625 L 24.109375 -28.953125 L 28.90625 -28.953125 Z M 28.90625 0" transform="translate(155.683 44.41)"/></g></g></g><g><g><g><path d="M 11.203125 0.203125 C 8.035156 0.203125 5.15625 -0.523438 2.5625 -1.984375 L 4.46875 -5.671875 C 6.34375 -4.453125 8.476562 -3.84375 10.875 -3.84375 C 13.601562 -3.84375 15.648438 -4.78125 17.015625 -6.65625 C 18.378906 -8.53125 19.019531 -11.082031 18.9375 -14.3125 C 17.394531 -11.582031 14.765625 -10.21875 11.046875 -10.21875 C 8.148438 -10.21875 5.875 -11.050781 4.21875 -12.71875 C 2.5625 -14.382812 1.734375 -16.625 1.734375 -19.4375 C 1.734375 -22.414062 2.65625 -24.78125 4.5 -26.53125 C 6.351562 -28.28125 8.820312 -29.15625 11.90625 -29.15625 C 15.570312 -29.15625 18.453125 -27.914062 20.546875 -25.4375 C 22.648438 -22.957031 23.703125 -19.5 23.703125 -15.0625 C 23.703125 -10.425781 22.570312 -6.722656 20.3125 -3.953125 C 18.050781 -1.179688 15.015625 0.203125 11.203125 0.203125 Z M 11.953125 -14.0625 C 13.859375 -14.0625 15.375 -14.59375 16.5 -15.65625 C 17.632812 -16.71875 18.1875 -18.019531 18.15625 -19.5625 C 18.1875 -20.96875 17.679688 -22.210938 16.640625 -23.296875 C 15.609375 -24.390625 14.113281 -24.9375 12.15625 -24.9375 C 10.363281 -24.9375 8.9375 -24.445312 7.875 -23.46875 C 6.8125 -22.488281 6.28125 -21.128906 6.28125 -19.390625 C 6.28125 -17.742188 6.785156 -16.441406 7.796875 -15.484375 C 8.804688 -14.535156 10.191406 -14.0625 11.953125 -14.0625 Z M 11.953125 -14.0625" transform="translate(188.427 44.41)"/></g></g></g><g><g><g><path d="M 5.875 -27.1875 C 7.613281 -28.5 9.96875 -29.15625 12.9375 -29.15625 C 15.914062 -29.15625 18.28125 -28.484375 20.03125 -27.140625 C 21.789062 -25.804688 22.671875 -23.984375 22.671875 -21.671875 C 22.671875 -20.296875 22.289062 -19.066406 21.53125 -17.984375 C 20.769531 -16.910156 19.710938 -16.070312 18.359375 -15.46875 C 20.148438 -14.882812 21.554688 -13.945312 22.578125 -12.65625 C 23.597656 -11.363281 24.109375 -9.847656 24.109375 -8.109375 C 24.109375 -5.546875 23.109375 -3.519531 21.109375 -2.03125 C 19.109375 -0.539062 16.390625 0.203125 12.953125 0.203125 C 9.523438 0.203125 6.8125 -0.53125 4.8125 -2 C 2.8125 -3.476562 1.8125 -5.488281 1.8125 -8.03125 C 1.8125 -9.789062 2.34375 -11.320312 3.40625 -12.625 C 4.46875 -13.9375 5.925781 -14.882812 7.78125 -15.46875 C 4.769531 -16.84375 3.265625 -18.96875 3.265625 -21.84375 C 3.265625 -24.101562 4.132812 -25.882812 5.875 -27.1875 Z M 12.953125 -25.640625 C 11.210938 -25.640625 9.851562 -25.265625 8.875 -24.515625 C 7.894531 -23.773438 7.40625 -22.726562 7.40625 -21.375 C 7.40625 -20.03125 7.894531 -18.992188 8.875 -18.265625 C 9.851562 -17.535156 11.210938 -17.171875 12.953125 -17.171875 C 14.710938 -17.171875 16.070312 -17.535156 17.03125 -18.265625 C 18 -18.992188 18.484375 -20.03125 18.484375 -21.375 C 18.484375 -22.726562 18 -23.773438 17.03125 -24.515625 C 16.070312 -25.265625 14.710938 -25.640625 12.953125 -25.640625 Z M 12.953125 -13.359375 C 10.910156 -13.359375 9.316406 -12.9375 8.171875 -12.09375 C 7.023438 -11.257812 6.453125 -10.082031 6.453125 -8.5625 C 6.453125 -6.988281 7.015625 -5.773438 8.140625 -4.921875 C 9.273438 -4.066406 10.875 -3.640625 12.9375 -3.640625 C 15.007812 -3.640625 16.617188 -4.066406 17.765625 -4.921875 C 18.910156 -5.773438 19.484375 -6.988281 19.484375 -8.5625 C 19.484375 -10.082031 18.910156 -11.257812 17.765625 -12.09375 C 16.617188 -12.9375 15.015625 -13.359375 12.953125 -13.359375 Z M 12.953125 -13.359375" transform="translate(213.854 44.41)"/></g></g></g><g><g><g><path d="M 16.703125 0 L 11.65625 0 L 0.125 -28.953125 L 5.375 -28.953125 L 14.3125 -5.421875 L 23.328125 -28.953125 L 28.40625 -28.953125 Z M 16.703125 0" transform="translate(250.401 44.41)"/></g></g></g><g><g><g><path d="M 28.90625 0 L 24.109375 0 L 8.6875 -20.765625 L 8.6875 0 L 3.8125 0 L 3.8125 -28.953125 L 8.609375 -28.953125 L 24.109375 -8.140625 L 24.109375 -28.953125 L 28.90625 -28.953125 Z M 28.90625 0" transform="translate(278.929 44.41)"/></g></g></g><g clip-path="url(#a)"><path fill="#EDBE00" d="M 12.789062 7.230469 C 11.144531 9.847656 10.039062 10.472656 9.023438 10.027344 C 8.074219 9.605469 7.628906 8.140625 9.507812 5.140625 C 11.410156 2.054688 16.183594 0.0742188 16.167969 0.152344 C 16.074219 0.183594 14.328125 4.652344 12.789062 7.230469 Z M 12.789062 7.230469"/></g><path fill="#EDBE00" d="M 10.453125 17.914062 C 8.621094 19.339844 6.339844 18.785156 6.332031 18.753906 C 6.25 18.777344 7.007812 14.367188 9.230469 13.082031 C 11.367188 11.800781 14.386719 13.050781 14.378906 13.027344 C 14.308594 13.003906 12.203125 16.457031 10.453125 17.914062 Z M 10.453125 17.914062"/><path fill="#EDBE00" d="M 2.949219 16.410156 C 4.082031 18.859375 6.550781 18.757812 6.53125 18.785156 C 6.46875 18.753906 7.320312 14.644531 6.675781 12.171875 C 5.949219 9.683594 3.1875 8.113281 3.164062 8.128906 C 3.042969 8.109375 1.675781 13.957031 2.949219 16.410156 Z M 2.949219 16.410156"/><path fill="#EDBE00" d="M 10.171875 26.957031 C 8.878906 28.855469 6.542969 29.046875 6.527344 29.023438 C 6.460938 29.0625 5.796875 24.722656 7.472656 22.871094 C 9.066406 21.039062 12.320312 21.269531 12.308594 21.246094 C 12.238281 21.238281 11.382812 25.046875 10.171875 26.957031 Z M 10.171875 26.957031"/><path fill="#EDBE00" d="M 2.59375 27.882812 C 4.429688 29.8125 6.734375 28.953125 6.726562 28.984375 C 6.664062 28.96875 6.1875 24.875 4.761719 22.8125 C 3.265625 20.753906 0.140625 20.167969 0.125 20.1875 C 0.0117188 20.195312 0.628906 25.976562 2.59375 27.882812 Z M 2.59375 27.882812"/><path fill="#EDBE00" d="M 12.667969 35.566406 C 12.015625 37.773438 9.855469 38.6875 9.832031 38.664062 C 9.785156 38.71875 7.847656 34.792969 8.871094 32.53125 C 9.828125 30.304688 12.976562 29.511719 12.960938 29.496094 C 12.898438 29.503906 13.242188 33.363281 12.667969 35.566406 Z M 12.667969 35.566406"/><path fill="#EDBE00" d="M 5.757812 38.804688 C 8.082031 40.066406 10.007812 38.539062 10.007812 38.570312 C 9.945312 38.570312 8.257812 34.816406 6.28125 33.320312 C 4.234375 31.847656 1.089844 32.273438 1.082031 32.292969 C 0.984375 32.328125 3.328125 37.59375 5.757812 38.804688 Z M 5.757812 38.804688"/><path fill="#EDBE00" d="M 17.652344 43.023438 C 17.722656 45.34375 15.949219 46.886719 15.921875 46.871094 C 15.890625 46.941406 12.828125 43.773438 13.121094 41.289062 C 13.351562 38.863281 16.101562 37.125 16.082031 37.117188 C 16.019531 37.144531 17.515625 40.730469 17.652344 43.023438 Z M 17.652344 43.023438"/><path fill="#EDBE00" d="M 12.085938 48.269531 C 14.691406 48.761719 16.050781 46.695312 16.0625 46.726562 C 15.996094 46.75 13.226562 43.671875 10.902344 42.851562 C 8.511719 42.074219 5.660156 43.460938 5.660156 43.480469 C 5.574219 43.542969 9.390625 47.859375 12.085938 48.269531 Z M 12.085938 48.269531"/><path fill="#EDBE00" d="M 24.839844 48.613281 C 25.6875 50.804688 24.496094 52.832031 24.460938 52.828125 C 24.441406 52.910156 20.40625 50.84375 19.894531 48.371094 C 19.335938 45.976562 21.417969 43.457031 21.390625 43.457031 C 21.335938 43.503906 23.921875 46.472656 24.839844 48.613281 Z M 24.839844 48.613281"/><path fill="#EDBE00" d="M 21.203125 55.363281 C 23.902344 55.015625 24.53125 52.617188 24.550781 52.648438 C 24.484375 52.695312 20.757812 50.621094 18.273438 50.554688 C 15.734375 50.554688 13.453125 52.765625 13.457031 52.789062 C 13.386719 52.875 18.429688 55.820312 21.203125 55.363281 Z M 21.203125 55.363281"/><g clip-path="url(#b)"><path fill="#EDBE00" d="M 13.507812 2.988281 C 11.71875 5.414062 10.234375 8.03125 9.15625 10.804688 C 8.074219 13.574219 7.363281 16.472656 7.054688 19.410156 C 6.898438 20.878906 6.847656 22.355469 6.882812 23.828125 C 6.929688 25.300781 7.0625 26.769531 7.300781 28.21875 C 7.539062 29.671875 7.863281 31.109375 8.289062 32.511719 C 8.710938 33.917969 9.226562 35.292969 9.835938 36.632812 C 12.261719 41.976562 16.121094 46.675781 20.96875 50.027344 C 21.269531 50.238281 21.578125 50.441406 21.886719 50.640625 C 22.039062 50.734375 22.199219 50.84375 22.347656 50.925781 L 22.578125 51.0625 C 22.65625 51.105469 22.730469 51.144531 22.808594 51.1875 C 23.121094 51.355469 23.449219 51.5 23.78125 51.640625 C 24.117188 51.773438 24.457031 51.90625 24.804688 52.019531 C 25.5 52.257812 26.222656 52.464844 26.941406 52.695312 C 27.664062 52.925781 28.394531 53.175781 29.097656 53.5 C 29.449219 53.65625 29.796875 53.832031 30.132812 54.019531 C 30.46875 54.210938 30.800781 54.410156 31.113281 54.628906 C 31.433594 54.851562 31.742188 55.082031 32.035156 55.335938 C 32.328125 55.585938 32.601562 55.859375 32.859375 56.144531 C 33.117188 56.433594 33.351562 56.738281 33.570312 57.054688 C 33.785156 57.375 33.976562 57.707031 34.148438 58.042969 C 34.488281 58.722656 34.773438 59.421875 35.042969 60.125 C 34.6875 59.460938 34.34375 58.789062 33.9375 58.164062 C 33.738281 57.847656 33.527344 57.542969 33.292969 57.257812 C 33.0625 56.972656 32.8125 56.703125 32.542969 56.453125 C 31.472656 55.449219 30.167969 54.726562 28.796875 54.21875 C 27.433594 53.699219 25.972656 53.433594 24.496094 53.019531 C 24.125 52.917969 23.753906 52.796875 23.386719 52.671875 C 23.019531 52.535156 22.652344 52.394531 22.292969 52.21875 C 22.203125 52.175781 22.113281 52.136719 22.027344 52.089844 L 21.761719 51.949219 C 21.582031 51.855469 21.421875 51.761719 21.253906 51.664062 C 20.921875 51.472656 20.597656 51.269531 20.273438 51.066406 C 18.980469 50.242188 17.746094 49.324219 16.585938 48.3125 C 16.296875 48.0625 16.011719 47.800781 15.726562 47.542969 C 15.449219 47.277344 15.171875 47.011719 14.902344 46.738281 C 14.363281 46.191406 13.835938 45.628906 13.335938 45.042969 C 12.332031 43.878906 11.417969 42.632812 10.585938 41.339844 C 10.175781 40.6875 9.785156 40.023438 9.414062 39.347656 L 8.878906 38.324219 L 8.382812 37.28125 C 7.75 35.875 7.214844 34.425781 6.78125 32.945312 C 6.355469 31.464844 6.023438 29.957031 5.808594 28.433594 C 5.59375 26.90625 5.480469 25.371094 5.480469 23.832031 C 5.480469 22.296875 5.59375 20.757812 5.808594 19.242188 C 6.253906 16.207031 7.136719 13.242188 8.4375 10.484375 C 9.75 7.746094 11.449219 5.1875 13.507812 2.988281 Z M 13.507812 2.988281"/></g><g clip-path="url(#c)"><path fill="#EDBE00" d="M 52.429688 7.230469 C 54.078125 9.847656 55.183594 10.472656 56.199219 10.027344 C 57.148438 9.605469 57.59375 8.140625 55.714844 5.140625 C 53.8125 2.054688 49.039062 0.0742188 49.054688 0.152344 C 49.148438 0.183594 50.894531 4.652344 52.429688 7.230469 Z M 52.429688 7.230469"/></g><path fill="#EDBE00" d="M 54.769531 17.914062 C 56.601562 19.339844 58.882812 18.785156 58.890625 18.753906 C 58.972656 18.777344 58.214844 14.367188 55.988281 13.082031 C 53.855469 11.800781 50.835938 13.050781 50.84375 13.027344 C 50.914062 13.003906 53.019531 16.457031 54.769531 17.914062 Z M 54.769531 17.914062"/><path fill="#EDBE00" d="M 62.273438 16.410156 C 61.140625 18.859375 58.671875 18.757812 58.691406 18.785156 C 58.75 18.753906 57.898438 14.644531 58.546875 12.171875 C 59.273438 9.683594 62.035156 8.113281 62.058594 8.128906 C 62.179688 8.109375 63.546875 13.957031 62.273438 16.410156 Z M 62.273438 16.410156"/><path fill="#EDBE00" d="M 55.050781 26.957031 C 56.34375 28.855469 58.679688 29.046875 58.695312 29.023438 C 58.757812 29.0625 59.425781 24.722656 57.75 22.871094 C 56.15625 21.039062 52.902344 21.269531 52.914062 21.246094 C 52.984375 21.238281 53.839844 25.046875 55.050781 26.957031 Z M 55.050781 26.957031"/><g clip-path="url(#d)"><path fill="#EDBE00" d="M 62.628906 27.882812 C 60.792969 29.8125 58.488281 28.953125 58.496094 28.984375 C 58.558594 28.96875 59.035156 24.875 60.460938 22.8125 C 61.957031 20.753906 65.082031 20.167969 65.097656 20.1875 C 65.210938 20.195312 64.59375 25.976562 62.628906 27.882812 Z M 62.628906 27.882812"/></g><path fill="#EDBE00" d="M 52.554688 35.566406 C 53.207031 37.773438 55.367188 38.6875 55.390625 38.664062 C 55.4375 38.71875 57.375 34.792969 56.351562 32.53125 C 55.394531 30.304688 52.246094 29.511719 52.261719 29.496094 C 52.324219 29.503906 51.976562 33.363281 52.554688 35.566406 Z M 52.554688 35.566406"/><path fill="#EDBE00" d="M 59.464844 38.804688 C 57.140625 40.066406 55.214844 38.539062 55.214844 38.570312 C 55.277344 38.570312 56.964844 34.816406 58.941406 33.320312 C 60.988281 31.847656 64.132812 32.273438 64.140625 32.292969 C 64.238281 32.328125 61.894531 37.59375 59.464844 38.804688 Z M 59.464844 38.804688"/><path fill="#EDBE00" d="M 47.566406 43.023438 C 47.5 45.34375 49.269531 46.886719 49.300781 46.871094 C 49.332031 46.941406 52.394531 43.773438 52.101562 41.289062 C 51.871094 38.863281 49.121094 37.125 49.140625 37.117188 C 49.203125 37.144531 47.707031 40.730469 47.566406 43.023438 Z M 47.566406 43.023438"/><path fill="#EDBE00" d="M 53.136719 48.269531 C 50.53125 48.761719 49.171875 46.695312 49.160156 46.726562 C 49.226562 46.75 51.992188 43.671875 54.316406 42.851562 C 56.710938 42.074219 59.5625 43.460938 59.5625 43.480469 C 59.648438 43.542969 55.832031 47.859375 53.136719 48.269531 Z M 53.136719 48.269531"/><path fill="#EDBE00" d="M 40.382812 48.613281 C 39.535156 50.804688 40.726562 52.832031 40.761719 52.828125 C 40.78125 52.910156 44.816406 50.84375 45.328125 48.371094 C 45.886719 45.976562 43.804688 43.457031 43.832031 43.457031 C 43.886719 43.503906 41.300781 46.472656 40.382812 48.613281 Z M 40.382812 48.613281"/><path fill="#EDBE00" d="M 44.015625 55.363281 C 41.320312 55.015625 40.691406 52.617188 40.671875 52.648438 C 40.738281 52.695312 44.464844 50.621094 46.945312 50.554688 C 49.488281 50.554688 51.769531 52.765625 51.765625 52.789062 C 51.835938 52.875 46.792969 55.820312 44.015625 55.363281 Z M 44.015625 55.363281"/><g clip-path="url(#e)"><path fill="#EDBE00" d="M 51.714844 2.988281 C 53.503906 5.414062 54.984375 8.03125 56.066406 10.804688 C 57.148438 13.574219 57.859375 16.472656 58.167969 19.410156 C 58.324219 20.878906 58.375 22.355469 58.335938 23.828125 C 58.292969 25.300781 58.160156 26.769531 57.921875 28.21875 C 57.683594 29.671875 57.359375 31.109375 56.933594 32.511719 C 56.511719 33.917969 55.996094 35.292969 55.386719 36.632812 C 52.960938 41.976562 49.101562 46.675781 44.253906 50.027344 C 43.953125 50.238281 43.644531 50.441406 43.335938 50.640625 C 43.183594 50.734375 43.023438 50.84375 42.875 50.925781 L 42.644531 51.0625 C 42.566406 51.105469 42.488281 51.144531 42.414062 51.1875 C 42.101562 51.355469 41.773438 51.5 41.441406 51.640625 C 41.105469 51.773438 40.765625 51.90625 40.417969 52.019531 C 39.722656 52.257812 39 52.464844 38.277344 52.695312 C 37.558594 52.925781 36.828125 53.175781 36.125 53.5 C 35.769531 53.65625 35.425781 53.832031 35.089844 54.019531 C 34.753906 54.210938 34.421875 54.410156 34.105469 54.628906 C 33.789062 54.851562 33.480469 55.082031 33.1875 55.335938 C 32.894531 55.585938 32.617188 55.859375 32.363281 56.144531 C 32.105469 56.433594 31.871094 56.738281 31.652344 57.054688 C 31.4375 57.375 31.246094 57.707031 31.074219 58.042969 C 30.730469 58.722656 30.449219 59.421875 30.179688 60.125 C 30.535156 59.460938 30.878906 58.789062 31.285156 58.164062 C 31.484375 57.847656 31.695312 57.542969 31.929688 57.257812 C 32.160156 56.972656 32.410156 56.703125 32.679688 56.453125 C 33.75 55.449219 35.054688 54.726562 36.421875 54.21875 C 37.789062 53.699219 39.25 53.433594 40.726562 53.019531 C 41.097656 52.917969 41.46875 52.796875 41.835938 52.671875 C 42.203125 52.535156 42.570312 52.394531 42.925781 52.21875 C 43.019531 52.175781 43.109375 52.136719 43.195312 52.089844 L 43.460938 51.949219 C 43.640625 51.855469 43.800781 51.761719 43.96875 51.664062 C 44.300781 51.472656 44.625 51.269531 44.949219 51.066406 C 46.242188 50.242188 47.476562 49.324219 48.632812 48.3125 C 48.925781 48.0625 49.210938 47.800781 49.492188 47.542969 C 49.773438 47.277344 50.050781 47.011719 50.320312 46.738281 C 50.859375 46.191406 51.386719 45.628906 51.886719 45.042969 C 52.890625 43.878906 53.804688 42.632812 54.636719 41.339844 C 55.046875 40.6875 55.4375 40.023438 55.804688 39.347656 L 56.34375 38.324219 L 56.839844 37.28125 C 57.46875 35.875 58.007812 34.425781 58.441406 32.945312 C 58.867188 31.464844 59.199219 29.957031 59.414062 28.433594 C 59.628906 26.90625 59.742188 25.371094 59.742188 23.832031 C 59.742188 22.296875 59.628906 20.757812 59.410156 19.242188 C 58.964844 16.207031 58.085938 13.242188 56.785156 10.484375 C 55.472656 7.746094 53.773438 5.1875 51.714844 2.988281 Z M 51.714844 2.988281"/></g><g clip-path="url(#f)"><path fill="#EDBE00" d="M 39.71875 27.324219 C 39.5625 27.699219 39.363281 28.027344 39.113281 28.308594 C 38.867188 28.585938 38.542969 28.832031 38.140625 29.042969 C 37.738281 29.257812 37.347656 29.429688 36.96875 29.5625 C 36.589844 29.691406 36.132812 29.804688 35.597656 29.90625 C 35.0625 30.003906 34.59375 30.074219 34.191406 30.113281 C 33.789062 30.15625 33.308594 30.1875 32.746094 30.210938 C 32.1875 30.238281 31.753906 30.25 31.441406 30.25 C 31.128906 30.25 30.734375 30.246094 30.253906 30.238281 C 29.777344 30.230469 29.472656 30.226562 29.34375 30.226562 L 29.34375 21.914062 C 29.472656 21.914062 29.863281 21.90625 30.515625 21.890625 C 31.164062 21.871094 31.695312 21.863281 32.105469 21.863281 C 32.515625 21.863281 33.085938 21.890625 33.808594 21.9375 C 34.53125 21.988281 35.140625 22.0625 35.636719 22.160156 C 36.128906 22.257812 36.667969 22.410156 37.25 22.613281 C 37.835938 22.820312 38.308594 23.070312 38.671875 23.363281 C 39.03125 23.660156 39.335938 24.035156 39.582031 24.496094 C 39.832031 24.953125 39.953125 25.476562 39.953125 26.070312 C 39.953125 26.527344 39.875 26.945312 39.71875 27.324219 Z M 29.34375 10.578125 C 29.457031 10.578125 29.78125 10.574219 30.316406 10.566406 C 30.851562 10.558594 31.296875 10.550781 31.648438 10.542969 C 32.003906 10.53125 32.480469 10.554688 33.082031 10.601562 C 33.683594 10.652344 34.1875 10.71875 34.597656 10.800781 C 35.011719 10.882812 35.464844 11.015625 35.957031 11.203125 C 36.449219 11.394531 36.84375 11.621094 37.140625 11.894531 C 37.4375 12.164062 37.6875 12.507812 37.890625 12.925781 C 38.097656 13.34375 38.203125 13.824219 38.203125 14.363281 C 38.203125 14.824219 38.128906 15.242188 37.980469 15.617188 C 37.832031 15.996094 37.609375 16.3125 37.3125 16.566406 C 37.019531 16.820312 36.710938 17.039062 36.398438 17.230469 C 36.085938 17.417969 35.6875 17.570312 35.203125 17.683594 C 34.71875 17.800781 34.292969 17.890625 33.933594 17.953125 C 33.570312 18.019531 33.117188 18.066406 32.574219 18.089844 C 32.03125 18.113281 31.621094 18.132812 31.34375 18.140625 C 31.0625 18.148438 30.679688 18.148438 30.195312 18.140625 C 29.707031 18.132812 29.425781 18.125 29.34375 18.125 Z M 46.34375 21.542969 C 45.390625 20.316406 43.953125 19.472656 42.027344 19.011719 C 44.476562 17.765625 45.554688 15.652344 45.257812 12.667969 C 45.160156 11.585938 44.859375 10.648438 44.359375 9.851562 C 43.855469 9.058594 43.179688 8.417969 42.320312 7.9375 C 41.464844 7.453125 40.535156 7.082031 39.535156 6.828125 C 38.53125 6.574219 37.378906 6.390625 36.078125 6.277344 L 36.078125 0.078125 L 32.277344 0.078125 L 32.277344 6.105469 C 31.621094 6.105469 30.617188 6.121094 29.269531 6.152344 L 29.269531 0.078125 L 25.46875 0.078125 L 25.46875 6.277344 C 24.925781 6.292969 24.128906 6.300781 23.074219 6.300781 L 17.84375 6.277344 L 17.84375 10.308594 L 20.582031 10.308594 C 21.832031 10.308594 22.566406 10.867188 22.777344 11.980469 L 22.777344 19.039062 C 22.941406 19.039062 23.074219 19.046875 23.171875 19.0625 L 22.777344 19.0625 L 22.777344 28.945312 C 22.648438 29.78125 22.167969 30.199219 21.347656 30.199219 L 18.609375 30.199219 L 17.84375 34.699219 L 22.777344 34.699219 C 23.089844 34.699219 23.542969 34.703125 24.136719 34.710938 C 24.726562 34.71875 25.171875 34.726562 25.46875 34.726562 L 25.46875 40.996094 L 29.269531 40.996094 L 29.269531 34.796875 C 29.960938 34.816406 30.964844 34.824219 32.28125 34.824219 L 32.28125 40.996094 L 36.078125 40.996094 L 36.078125 34.726562 C 37.429688 34.660156 38.625 34.539062 39.667969 34.355469 C 40.714844 34.175781 41.714844 33.894531 42.667969 33.507812 C 43.621094 33.121094 44.417969 32.644531 45.0625 32.070312 C 45.703125 31.496094 46.234375 30.765625 46.652344 29.878906 C 47.070312 28.996094 47.339844 27.96875 47.453125 26.804688 C 47.667969 24.527344 47.300781 22.773438 46.34375 21.542969"/></g></svg>