<svg xmlns="http://www.w3.org/2000/svg" width="244.5" viewBox="0 0 244.5 34.5" height="34.5" version="1.0"><defs><clipPath id="a"><path d="M 1.5 0 L 242.507812 0 L 242.507812 34.007812 L 1.5 34.007812 Z M 1.5 0"/></clipPath><clipPath id="b"><path d="M 215 1 L 242.507812 1 L 242.507812 33 L 215 33 Z M 215 1"/></clipPath></defs><g clip-path="url(#a)" fill="#FFF"><path d="M 1.5 0 L 243 0 L 243 40.742188 L 1.5 40.742188 Z M 1.5 0"/><path d="M 1.5 0 L 243 0 L 243 34.078125 L 1.5 34.078125 Z M 1.5 0"/><path d="M 1.5 0 L 243 0 L 243 34.078125 L 1.5 34.078125 Z M 1.5 0"/></g><g fill="#0E0139"><g><g><path d="M 17.859375 -31.234375 C 20.054688 -31.234375 22.195312 -30.8125 24.28125 -29.96875 C 26.375 -29.125 28.175781 -27.945312 29.6875 -26.4375 L 26.625 -22.625 C 25.488281 -23.832031 24.148438 -24.789062 22.609375 -25.5 C 21.078125 -26.21875 19.523438 -26.578125 17.953125 -26.578125 C 14.835938 -26.578125 12.207031 -25.515625 10.0625 -23.390625 C 7.914062 -21.273438 6.84375 -18.691406 6.84375 -15.640625 C 6.84375 -12.554688 7.914062 -9.957031 10.0625 -7.84375 C 12.207031 -5.726562 14.835938 -4.671875 17.953125 -4.671875 C 21.179688 -4.671875 24.070312 -5.898438 26.625 -8.359375 L 29.734375 -4.890625 C 28.128906 -3.316406 26.257812 -2.070312 24.125 -1.15625 C 22 -0.238281 19.851562 0.21875 17.6875 0.21875 C 13.125 0.21875 9.285156 -1.296875 6.171875 -4.328125 C 3.066406 -7.367188 1.515625 -11.125 1.515625 -15.59375 C 1.515625 -20.007812 3.085938 -23.71875 6.234375 -26.71875 C 9.390625 -29.726562 13.265625 -31.234375 17.859375 -31.234375 Z M 17.859375 -31.234375" transform="translate(.956 32.84)"/></g></g></g><g fill="#0E0139"><g><g><path d="M 6.265625 -26.71875 C 9.429688 -29.726562 13.335938 -31.234375 17.984375 -31.234375 C 22.640625 -31.234375 26.550781 -29.726562 29.71875 -26.71875 C 32.894531 -23.71875 34.484375 -19.992188 34.484375 -15.546875 C 34.484375 -11.109375 32.894531 -7.367188 29.71875 -4.328125 C 26.550781 -1.296875 22.640625 0.21875 17.984375 0.21875 C 13.335938 0.21875 9.429688 -1.296875 6.265625 -4.328125 C 3.097656 -7.367188 1.515625 -11.109375 1.515625 -15.546875 C 1.515625 -19.992188 3.097656 -23.71875 6.265625 -26.71875 Z M 18.046875 -26.53125 C 14.960938 -26.53125 12.320312 -25.46875 10.125 -23.34375 C 7.9375 -21.226562 6.84375 -18.628906 6.84375 -15.546875 C 6.84375 -12.472656 7.945312 -9.859375 10.15625 -7.703125 C 12.363281 -5.554688 14.992188 -4.484375 18.046875 -4.484375 C 21.097656 -4.484375 23.703125 -5.554688 25.859375 -7.703125 C 28.023438 -9.859375 29.109375 -12.472656 29.109375 -15.546875 C 29.109375 -18.628906 28.023438 -21.226562 25.859375 -23.34375 C 23.703125 -25.46875 21.097656 -26.53125 18.046875 -26.53125 Z M 18.046875 -26.53125" transform="translate(31.617 32.84)"/></g></g></g><g fill="#0E0139"><g><g><path d="M 9.328125 0 L 4.09375 0 L 4.09375 -31.109375 L 9.328125 -31.109375 Z M 9.328125 0" transform="translate(67.3 32.84)"/></g></g></g><g fill="#0E0139"><g><g><path d="M 31.0625 0 L 25.90625 0 L 9.328125 -22.3125 L 9.328125 0 L 4.09375 0 L 4.09375 -31.109375 L 9.25 -31.109375 L 25.90625 -8.75 L 25.90625 -31.109375 L 31.0625 -31.109375 Z M 31.0625 0" transform="translate(80.408 32.84)"/></g></g></g><g fill="#0E0139"><g><g><path d="M 12.046875 0.21875 C 8.640625 0.21875 5.539062 -0.566406 2.75 -2.140625 L 4.796875 -6.09375 C 6.816406 -4.78125 9.113281 -4.125 11.6875 -4.125 C 14.625 -4.125 16.820312 -5.128906 18.28125 -7.140625 C 19.75 -9.160156 20.441406 -11.90625 20.359375 -15.375 C 18.691406 -12.4375 15.859375 -10.96875 11.859375 -10.96875 C 8.753906 -10.96875 6.3125 -11.863281 4.53125 -13.65625 C 2.75 -15.457031 1.859375 -17.867188 1.859375 -20.890625 C 1.859375 -24.085938 2.851562 -26.625 4.84375 -28.5 C 6.832031 -30.382812 9.484375 -31.328125 12.796875 -31.328125 C 16.734375 -31.328125 19.828125 -29.992188 22.078125 -27.328125 C 24.335938 -24.660156 25.46875 -20.941406 25.46875 -16.171875 C 25.46875 -11.191406 24.25 -7.210938 21.8125 -4.234375 C 19.382812 -1.265625 16.128906 0.21875 12.046875 0.21875 Z M 12.84375 -15.109375 C 14.882812 -15.109375 16.507812 -15.675781 17.71875 -16.8125 C 18.9375 -17.957031 19.535156 -19.359375 19.515625 -21.015625 C 19.535156 -22.523438 18.988281 -23.863281 17.875 -25.03125 C 16.769531 -26.207031 15.164062 -26.796875 13.0625 -26.796875 C 11.132812 -26.796875 9.597656 -26.269531 8.453125 -25.21875 C 7.316406 -24.164062 6.75 -22.707031 6.75 -20.84375 C 6.75 -19.0625 7.289062 -17.660156 8.375 -16.640625 C 9.457031 -15.617188 10.945312 -15.109375 12.84375 -15.109375 Z M 12.84375 -15.109375" transform="translate(115.29 32.84)"/></g></g></g><g fill="#0E0139"><g><g><path d="M 6.3125 -29.21875 C 8.175781 -30.625 10.707031 -31.328125 13.90625 -31.328125 C 17.101562 -31.328125 19.644531 -30.609375 21.53125 -29.171875 C 23.414062 -27.734375 24.359375 -25.769531 24.359375 -23.28125 C 24.359375 -21.800781 23.945312 -20.484375 23.125 -19.328125 C 22.3125 -18.171875 21.179688 -17.269531 19.734375 -16.625 C 21.660156 -16 23.171875 -14.988281 24.265625 -13.59375 C 25.359375 -12.207031 25.90625 -10.578125 25.90625 -8.703125 C 25.90625 -5.953125 24.832031 -3.773438 22.6875 -2.171875 C 20.539062 -0.578125 17.613281 0.21875 13.90625 0.21875 C 10.238281 0.21875 7.328125 -0.570312 5.171875 -2.15625 C 3.023438 -3.738281 1.953125 -5.894531 1.953125 -8.625 C 1.953125 -10.519531 2.519531 -12.171875 3.65625 -13.578125 C 4.800781 -14.984375 6.367188 -16 8.359375 -16.625 C 5.128906 -18.101562 3.515625 -20.382812 3.515625 -23.46875 C 3.515625 -25.894531 4.445312 -27.8125 6.3125 -29.21875 Z M 13.90625 -27.546875 C 12.039062 -27.546875 10.582031 -27.144531 9.53125 -26.34375 C 8.476562 -25.550781 7.953125 -24.425781 7.953125 -22.96875 C 7.953125 -21.519531 8.476562 -20.398438 9.53125 -19.609375 C 10.582031 -18.828125 12.039062 -18.4375 13.90625 -18.4375 C 15.800781 -18.4375 17.265625 -18.828125 18.296875 -19.609375 C 19.335938 -20.398438 19.859375 -21.519531 19.859375 -22.96875 C 19.859375 -24.425781 19.335938 -25.550781 18.296875 -26.34375 C 17.265625 -27.144531 15.800781 -27.546875 13.90625 -27.546875 Z M 13.90625 -14.359375 C 11.71875 -14.359375 10.007812 -13.90625 8.78125 -13 C 7.550781 -12.09375 6.9375 -10.828125 6.9375 -9.203125 C 6.9375 -7.515625 7.539062 -6.207031 8.75 -5.28125 C 9.96875 -4.363281 11.6875 -3.90625 13.90625 -3.90625 C 16.125 -3.90625 17.847656 -4.363281 19.078125 -5.28125 C 20.316406 -6.207031 20.9375 -7.515625 20.9375 -9.203125 C 20.9375 -10.828125 20.316406 -12.09375 19.078125 -13 C 17.847656 -13.90625 16.125 -14.359375 13.90625 -14.359375 Z M 13.90625 -14.359375" transform="translate(142.308 32.84)"/></g></g></g><g fill="#0E0139"><g><g><path d="M 17.953125 0 L 12.53125 0 L 0.140625 -31.109375 L 5.78125 -31.109375 L 15.375 -5.828125 L 25.0625 -31.109375 L 30.53125 -31.109375 Z M 17.953125 0" transform="translate(180.967 32.84)"/></g></g></g><g clip-path="url(#b)"><g fill="#0E0139"><g><g><path d="M 31.0625 0 L 25.90625 0 L 9.328125 -22.3125 L 9.328125 0 L 4.09375 0 L 4.09375 -31.109375 L 9.25 -31.109375 L 25.90625 -8.75 L 25.90625 -31.109375 L 31.0625 -31.109375 Z M 31.0625 0" transform="translate(211.317 32.84)"/></g></g></g></g></svg>