<svg xmlns="http://www.w3.org/2000/svg" width="367.5" viewBox="0 0 367.5 60" height="60" version="1.0"><defs><clipPath id="a"><path d="M 15 0.0390625 L 24 0.0390625 L 24 11 L 15 11 Z M 15 0.0390625"/></clipPath><clipPath id="b"><path d="M 7.5 20 L 15 20 L 15 30 L 7.5 30 Z M 7.5 20"/></clipPath><clipPath id="c"><path d="M 12 2 L 43 2 L 43 59.957031 L 12 59.957031 Z M 12 2"/></clipPath><clipPath id="d"><path d="M 56 0.0390625 L 65 0.0390625 L 65 11 L 56 11 Z M 56 0.0390625"/></clipPath><clipPath id="e"><path d="M 65 20 L 72.695312 20 L 72.695312 30 L 65 30 Z M 65 20"/></clipPath><clipPath id="f"><path d="M 37 2 L 68 2 L 68 59.957031 L 37 59.957031 Z M 37 2"/></clipPath><clipPath id="g"><path d="M 25.34375 0.078125 L 55.011719 0.078125 L 55.011719 40.996094 L 25.34375 40.996094 Z M 25.34375 0.078125"/></clipPath></defs><g><g><g><path d="M 16.625 -29.078125 C 18.664062 -29.078125 20.65625 -28.679688 22.59375 -27.890625 C 24.539062 -27.109375 26.21875 -26.015625 27.625 -24.609375 L 24.78125 -21.046875 C 23.726562 -22.179688 22.484375 -23.078125 21.046875 -23.734375 C 19.617188 -24.398438 18.171875 -24.734375 16.703125 -24.734375 C 13.804688 -24.734375 11.359375 -23.742188 9.359375 -21.765625 C 7.367188 -19.796875 6.375 -17.394531 6.375 -14.5625 C 6.375 -11.6875 7.367188 -9.265625 9.359375 -7.296875 C 11.359375 -5.328125 13.804688 -4.34375 16.703125 -4.34375 C 19.710938 -4.34375 22.40625 -5.488281 24.78125 -7.78125 L 27.671875 -4.546875 C 26.179688 -3.085938 24.441406 -1.929688 22.453125 -1.078125 C 20.472656 -0.222656 18.476562 0.203125 16.46875 0.203125 C 12.21875 0.203125 8.644531 -1.207031 5.75 -4.03125 C 2.851562 -6.851562 1.40625 -10.347656 1.40625 -14.515625 C 1.40625 -18.628906 2.875 -22.082031 5.8125 -24.875 C 8.75 -27.675781 12.351562 -29.078125 16.625 -29.078125 Z M 16.625 -29.078125" transform="translate(90.25 44.655)"/></g></g></g><g><g><g><path d="M 5.828125 -24.875 C 8.773438 -27.675781 12.414062 -29.078125 16.75 -29.078125 C 21.082031 -29.078125 24.722656 -27.675781 27.671875 -24.875 C 30.617188 -22.082031 32.09375 -18.613281 32.09375 -14.46875 C 32.09375 -10.332031 30.617188 -6.851562 27.671875 -4.03125 C 24.722656 -1.207031 21.082031 0.203125 16.75 0.203125 C 12.414062 0.203125 8.773438 -1.207031 5.828125 -4.03125 C 2.878906 -6.851562 1.40625 -10.332031 1.40625 -14.46875 C 1.40625 -18.613281 2.878906 -22.082031 5.828125 -24.875 Z M 16.796875 -24.6875 C 13.921875 -24.6875 11.460938 -23.703125 9.421875 -21.734375 C 7.390625 -19.765625 6.375 -17.34375 6.375 -14.46875 C 6.375 -11.601562 7.398438 -9.171875 9.453125 -7.171875 C 11.503906 -5.171875 13.945312 -4.171875 16.78125 -4.171875 C 19.625 -4.171875 22.050781 -5.171875 24.0625 -7.171875 C 26.082031 -9.171875 27.09375 -11.601562 27.09375 -14.46875 C 27.09375 -17.34375 26.082031 -19.765625 24.0625 -21.734375 C 22.050781 -23.703125 19.628906 -24.6875 16.796875 -24.6875 Z M 16.796875 -24.6875" transform="translate(119.066 44.655)"/></g></g></g><g><g><g><path d="M 8.6875 0 L 3.8125 0 L 3.8125 -28.953125 L 8.6875 -28.953125 Z M 8.6875 0" transform="translate(152.555 44.655)"/></g></g></g><g><g><g><path d="M 28.90625 0 L 24.109375 0 L 8.6875 -20.765625 L 8.6875 0 L 3.8125 0 L 3.8125 -28.953125 L 8.609375 -28.953125 L 24.109375 -8.140625 L 24.109375 -28.953125 L 28.90625 -28.953125 Z M 28.90625 0" transform="translate(165.04 44.655)"/></g></g></g><g><g><g><path d="M 11.203125 0.203125 C 8.035156 0.203125 5.15625 -0.523438 2.5625 -1.984375 L 4.46875 -5.671875 C 6.34375 -4.453125 8.476562 -3.84375 10.875 -3.84375 C 13.601562 -3.84375 15.648438 -4.78125 17.015625 -6.65625 C 18.378906 -8.53125 19.019531 -11.082031 18.9375 -14.3125 C 17.394531 -11.582031 14.765625 -10.21875 11.046875 -10.21875 C 8.148438 -10.21875 5.875 -11.050781 4.21875 -12.71875 C 2.5625 -14.382812 1.734375 -16.625 1.734375 -19.4375 C 1.734375 -22.414062 2.65625 -24.78125 4.5 -26.53125 C 6.351562 -28.28125 8.820312 -29.15625 11.90625 -29.15625 C 15.570312 -29.15625 18.453125 -27.914062 20.546875 -25.4375 C 22.648438 -22.957031 23.703125 -19.5 23.703125 -15.0625 C 23.703125 -10.425781 22.570312 -6.722656 20.3125 -3.953125 C 18.050781 -1.179688 15.015625 0.203125 11.203125 0.203125 Z M 11.953125 -14.0625 C 13.859375 -14.0625 15.375 -14.59375 16.5 -15.65625 C 17.632812 -16.71875 18.1875 -18.019531 18.15625 -19.5625 C 18.1875 -20.96875 17.679688 -22.210938 16.640625 -23.296875 C 15.609375 -24.390625 14.113281 -24.9375 12.15625 -24.9375 C 10.363281 -24.9375 8.9375 -24.445312 7.875 -23.46875 C 6.8125 -22.488281 6.28125 -21.128906 6.28125 -19.390625 C 6.28125 -17.742188 6.785156 -16.441406 7.796875 -15.484375 C 8.804688 -14.535156 10.191406 -14.0625 11.953125 -14.0625 Z M 11.953125 -14.0625" transform="translate(197.785 44.655)"/></g></g></g><g><g><g><path d="M 5.875 -27.1875 C 7.613281 -28.5 9.96875 -29.15625 12.9375 -29.15625 C 15.914062 -29.15625 18.28125 -28.484375 20.03125 -27.140625 C 21.789062 -25.804688 22.671875 -23.984375 22.671875 -21.671875 C 22.671875 -20.296875 22.289062 -19.066406 21.53125 -17.984375 C 20.769531 -16.910156 19.710938 -16.070312 18.359375 -15.46875 C 20.148438 -14.882812 21.554688 -13.945312 22.578125 -12.65625 C 23.597656 -11.363281 24.109375 -9.847656 24.109375 -8.109375 C 24.109375 -5.546875 23.109375 -3.519531 21.109375 -2.03125 C 19.109375 -0.539062 16.390625 0.203125 12.953125 0.203125 C 9.523438 0.203125 6.8125 -0.53125 4.8125 -2 C 2.8125 -3.476562 1.8125 -5.488281 1.8125 -8.03125 C 1.8125 -9.789062 2.34375 -11.320312 3.40625 -12.625 C 4.46875 -13.9375 5.925781 -14.882812 7.78125 -15.46875 C 4.769531 -16.84375 3.265625 -18.96875 3.265625 -21.84375 C 3.265625 -24.101562 4.132812 -25.882812 5.875 -27.1875 Z M 12.953125 -25.640625 C 11.210938 -25.640625 9.851562 -25.265625 8.875 -24.515625 C 7.894531 -23.773438 7.40625 -22.726562 7.40625 -21.375 C 7.40625 -20.03125 7.894531 -18.992188 8.875 -18.265625 C 9.851562 -17.535156 11.210938 -17.171875 12.953125 -17.171875 C 14.710938 -17.171875 16.070312 -17.535156 17.03125 -18.265625 C 18 -18.992188 18.484375 -20.03125 18.484375 -21.375 C 18.484375 -22.726562 18 -23.773438 17.03125 -24.515625 C 16.070312 -25.265625 14.710938 -25.640625 12.953125 -25.640625 Z M 12.953125 -13.359375 C 10.910156 -13.359375 9.316406 -12.9375 8.171875 -12.09375 C 7.023438 -11.257812 6.453125 -10.082031 6.453125 -8.5625 C 6.453125 -6.988281 7.015625 -5.773438 8.140625 -4.921875 C 9.273438 -4.066406 10.875 -3.640625 12.9375 -3.640625 C 15.007812 -3.640625 16.617188 -4.066406 17.765625 -4.921875 C 18.910156 -5.773438 19.484375 -6.988281 19.484375 -8.5625 C 19.484375 -10.082031 18.910156 -11.257812 17.765625 -12.09375 C 16.617188 -12.9375 15.015625 -13.359375 12.953125 -13.359375 Z M 12.953125 -13.359375" transform="translate(223.211 44.655)"/></g></g></g><g><g><g><path d="M 16.703125 0 L 11.65625 0 L 0.125 -28.953125 L 5.375 -28.953125 L 14.3125 -5.421875 L 23.328125 -28.953125 L 28.40625 -28.953125 Z M 16.703125 0" transform="translate(259.759 44.655)"/></g></g></g><g><g><g><path d="M 28.90625 0 L 24.109375 0 L 8.6875 -20.765625 L 8.6875 0 L 3.8125 0 L 3.8125 -28.953125 L 8.609375 -28.953125 L 24.109375 -8.140625 L 24.109375 -28.953125 L 28.90625 -28.953125 Z M 28.90625 0" transform="translate(288.286 44.655)"/></g></g></g><g clip-path="url(#a)"><path fill="#EDBE00" d="M 20.289062 7.230469 C 18.644531 9.847656 17.539062 10.472656 16.523438 10.027344 C 15.574219 9.605469 15.128906 8.140625 17.007812 5.140625 C 18.910156 2.054688 23.683594 0.0742188 23.667969 0.152344 C 23.574219 0.183594 21.828125 4.652344 20.289062 7.230469 Z M 20.289062 7.230469"/></g><path fill="#EDBE00" d="M 17.953125 17.914062 C 16.121094 19.339844 13.839844 18.785156 13.832031 18.753906 C 13.75 18.777344 14.507812 14.367188 16.730469 13.082031 C 18.867188 11.800781 21.886719 13.050781 21.878906 13.027344 C 21.808594 13.003906 19.703125 16.457031 17.953125 17.914062 Z M 17.953125 17.914062"/><path fill="#EDBE00" d="M 10.449219 16.410156 C 11.582031 18.859375 14.050781 18.757812 14.03125 18.785156 C 13.96875 18.753906 14.820312 14.644531 14.175781 12.171875 C 13.449219 9.683594 10.6875 8.113281 10.664062 8.128906 C 10.542969 8.109375 9.175781 13.957031 10.449219 16.410156 Z M 10.449219 16.410156"/><path fill="#EDBE00" d="M 17.671875 26.957031 C 16.378906 28.855469 14.042969 29.046875 14.027344 29.023438 C 13.960938 29.0625 13.296875 24.722656 14.972656 22.871094 C 16.566406 21.039062 19.820312 21.269531 19.808594 21.246094 C 19.738281 21.238281 18.882812 25.046875 17.671875 26.957031 Z M 17.671875 26.957031"/><g clip-path="url(#b)"><path fill="#EDBE00" d="M 10.09375 27.882812 C 11.929688 29.8125 14.234375 28.953125 14.226562 28.984375 C 14.164062 28.96875 13.6875 24.875 12.261719 22.8125 C 10.765625 20.753906 7.640625 20.167969 7.625 20.1875 C 7.511719 20.195312 8.128906 25.976562 10.09375 27.882812 Z M 10.09375 27.882812"/></g><path fill="#EDBE00" d="M 20.167969 35.566406 C 19.515625 37.773438 17.355469 38.6875 17.332031 38.664062 C 17.285156 38.71875 15.347656 34.792969 16.371094 32.53125 C 17.328125 30.304688 20.476562 29.511719 20.460938 29.496094 C 20.398438 29.503906 20.742188 33.363281 20.167969 35.566406 Z M 20.167969 35.566406"/><path fill="#EDBE00" d="M 13.257812 38.804688 C 15.582031 40.066406 17.507812 38.539062 17.507812 38.570312 C 17.445312 38.570312 15.757812 34.816406 13.78125 33.320312 C 11.734375 31.847656 8.589844 32.273438 8.582031 32.292969 C 8.484375 32.328125 10.828125 37.59375 13.257812 38.804688 Z M 13.257812 38.804688"/><path fill="#EDBE00" d="M 25.152344 43.023438 C 25.222656 45.34375 23.449219 46.886719 23.421875 46.871094 C 23.390625 46.941406 20.328125 43.773438 20.621094 41.289062 C 20.851562 38.863281 23.601562 37.125 23.582031 37.117188 C 23.519531 37.144531 25.015625 40.730469 25.152344 43.023438 Z M 25.152344 43.023438"/><path fill="#EDBE00" d="M 19.585938 48.269531 C 22.191406 48.761719 23.550781 46.695312 23.5625 46.726562 C 23.496094 46.75 20.726562 43.671875 18.402344 42.851562 C 16.011719 42.074219 13.160156 43.460938 13.160156 43.480469 C 13.074219 43.542969 16.890625 47.859375 19.585938 48.269531 Z M 19.585938 48.269531"/><path fill="#EDBE00" d="M 32.339844 48.613281 C 33.1875 50.804688 31.996094 52.832031 31.960938 52.828125 C 31.941406 52.910156 27.90625 50.84375 27.394531 48.371094 C 26.835938 45.976562 28.917969 43.457031 28.890625 43.457031 C 28.835938 43.503906 31.421875 46.472656 32.339844 48.613281 Z M 32.339844 48.613281"/><path fill="#EDBE00" d="M 28.703125 55.363281 C 31.402344 55.015625 32.03125 52.617188 32.050781 52.648438 C 31.984375 52.695312 28.257812 50.621094 25.773438 50.554688 C 23.234375 50.554688 20.953125 52.765625 20.957031 52.789062 C 20.886719 52.875 25.929688 55.820312 28.703125 55.363281 Z M 28.703125 55.363281"/><g clip-path="url(#c)"><path fill="#EDBE00" d="M 21.007812 2.988281 C 19.21875 5.414062 17.734375 8.03125 16.65625 10.804688 C 15.574219 13.574219 14.863281 16.472656 14.554688 19.410156 C 14.398438 20.878906 14.347656 22.355469 14.382812 23.828125 C 14.429688 25.300781 14.5625 26.769531 14.800781 28.21875 C 15.039062 29.671875 15.363281 31.109375 15.789062 32.511719 C 16.210938 33.917969 16.726562 35.292969 17.335938 36.632812 C 19.761719 41.976562 23.621094 46.675781 28.46875 50.027344 C 28.769531 50.238281 29.078125 50.441406 29.386719 50.640625 C 29.539062 50.734375 29.699219 50.84375 29.847656 50.925781 L 30.078125 51.0625 C 30.15625 51.105469 30.230469 51.144531 30.308594 51.1875 C 30.621094 51.355469 30.949219 51.5 31.28125 51.640625 C 31.617188 51.773438 31.957031 51.90625 32.304688 52.019531 C 33 52.257812 33.722656 52.464844 34.441406 52.695312 C 35.164062 52.925781 35.894531 53.175781 36.597656 53.5 C 36.949219 53.65625 37.296875 53.832031 37.632812 54.019531 C 37.96875 54.210938 38.300781 54.410156 38.613281 54.628906 C 38.933594 54.851562 39.242188 55.082031 39.535156 55.335938 C 39.828125 55.585938 40.101562 55.859375 40.359375 56.144531 C 40.617188 56.433594 40.851562 56.738281 41.070312 57.054688 C 41.285156 57.375 41.476562 57.707031 41.648438 58.042969 C 41.988281 58.722656 42.273438 59.421875 42.542969 60.125 C 42.1875 59.460938 41.84375 58.789062 41.4375 58.164062 C 41.238281 57.847656 41.027344 57.542969 40.792969 57.257812 C 40.5625 56.972656 40.3125 56.703125 40.042969 56.453125 C 38.972656 55.449219 37.667969 54.726562 36.296875 54.21875 C 34.933594 53.699219 33.472656 53.433594 31.996094 53.019531 C 31.625 52.917969 31.253906 52.796875 30.886719 52.671875 C 30.519531 52.535156 30.152344 52.394531 29.792969 52.21875 C 29.703125 52.175781 29.613281 52.136719 29.527344 52.089844 L 29.261719 51.949219 C 29.082031 51.855469 28.921875 51.761719 28.753906 51.664062 C 28.421875 51.472656 28.097656 51.269531 27.773438 51.066406 C 26.480469 50.242188 25.246094 49.324219 24.085938 48.3125 C 23.796875 48.0625 23.511719 47.800781 23.226562 47.542969 C 22.949219 47.277344 22.671875 47.011719 22.402344 46.738281 C 21.863281 46.191406 21.335938 45.628906 20.835938 45.042969 C 19.832031 43.878906 18.917969 42.632812 18.085938 41.339844 C 17.675781 40.6875 17.285156 40.023438 16.914062 39.347656 L 16.378906 38.324219 L 15.882812 37.28125 C 15.25 35.875 14.714844 34.425781 14.28125 32.945312 C 13.855469 31.464844 13.523438 29.957031 13.308594 28.433594 C 13.09375 26.90625 12.980469 25.371094 12.980469 23.832031 C 12.980469 22.296875 13.09375 20.757812 13.308594 19.242188 C 13.753906 16.207031 14.636719 13.242188 15.9375 10.484375 C 17.25 7.746094 18.949219 5.1875 21.007812 2.988281 Z M 21.007812 2.988281"/></g><g clip-path="url(#d)"><path fill="#EDBE00" d="M 59.929688 7.230469 C 61.578125 9.847656 62.683594 10.472656 63.699219 10.027344 C 64.648438 9.605469 65.09375 8.140625 63.214844 5.140625 C 61.3125 2.054688 56.539062 0.0742188 56.554688 0.152344 C 56.648438 0.183594 58.394531 4.652344 59.929688 7.230469 Z M 59.929688 7.230469"/></g><path fill="#EDBE00" d="M 62.269531 17.914062 C 64.101562 19.339844 66.382812 18.785156 66.390625 18.753906 C 66.472656 18.777344 65.714844 14.367188 63.488281 13.082031 C 61.355469 11.800781 58.335938 13.050781 58.34375 13.027344 C 58.414062 13.003906 60.519531 16.457031 62.269531 17.914062 Z M 62.269531 17.914062"/><path fill="#EDBE00" d="M 69.773438 16.410156 C 68.640625 18.859375 66.171875 18.757812 66.191406 18.785156 C 66.25 18.753906 65.398438 14.644531 66.046875 12.171875 C 66.773438 9.683594 69.535156 8.113281 69.558594 8.128906 C 69.679688 8.109375 71.046875 13.957031 69.773438 16.410156 Z M 69.773438 16.410156"/><path fill="#EDBE00" d="M 62.550781 26.957031 C 63.84375 28.855469 66.179688 29.046875 66.195312 29.023438 C 66.257812 29.0625 66.925781 24.722656 65.25 22.871094 C 63.65625 21.039062 60.402344 21.269531 60.414062 21.246094 C 60.484375 21.238281 61.339844 25.046875 62.550781 26.957031 Z M 62.550781 26.957031"/><g clip-path="url(#e)"><path fill="#EDBE00" d="M 70.128906 27.882812 C 68.292969 29.8125 65.988281 28.953125 65.996094 28.984375 C 66.058594 28.96875 66.535156 24.875 67.960938 22.8125 C 69.457031 20.753906 72.582031 20.167969 72.597656 20.1875 C 72.710938 20.195312 72.09375 25.976562 70.128906 27.882812 Z M 70.128906 27.882812"/></g><path fill="#EDBE00" d="M 60.054688 35.566406 C 60.707031 37.773438 62.867188 38.6875 62.890625 38.664062 C 62.9375 38.71875 64.875 34.792969 63.851562 32.53125 C 62.894531 30.304688 59.746094 29.511719 59.761719 29.496094 C 59.824219 29.503906 59.476562 33.363281 60.054688 35.566406 Z M 60.054688 35.566406"/><path fill="#EDBE00" d="M 66.964844 38.804688 C 64.640625 40.066406 62.714844 38.539062 62.714844 38.570312 C 62.777344 38.570312 64.464844 34.816406 66.441406 33.320312 C 68.488281 31.847656 71.632812 32.273438 71.640625 32.292969 C 71.738281 32.328125 69.394531 37.59375 66.964844 38.804688 Z M 66.964844 38.804688"/><path fill="#EDBE00" d="M 55.066406 43.023438 C 55 45.34375 56.769531 46.886719 56.800781 46.871094 C 56.832031 46.941406 59.894531 43.773438 59.601562 41.289062 C 59.371094 38.863281 56.621094 37.125 56.640625 37.117188 C 56.703125 37.144531 55.207031 40.730469 55.066406 43.023438 Z M 55.066406 43.023438"/><path fill="#EDBE00" d="M 60.636719 48.269531 C 58.03125 48.761719 56.671875 46.695312 56.660156 46.726562 C 56.726562 46.75 59.492188 43.671875 61.816406 42.851562 C 64.210938 42.074219 67.0625 43.460938 67.0625 43.480469 C 67.148438 43.542969 63.332031 47.859375 60.636719 48.269531 Z M 60.636719 48.269531"/><path fill="#EDBE00" d="M 47.882812 48.613281 C 47.035156 50.804688 48.226562 52.832031 48.261719 52.828125 C 48.28125 52.910156 52.316406 50.84375 52.828125 48.371094 C 53.386719 45.976562 51.304688 43.457031 51.332031 43.457031 C 51.386719 43.503906 48.800781 46.472656 47.882812 48.613281 Z M 47.882812 48.613281"/><path fill="#EDBE00" d="M 51.515625 55.363281 C 48.820312 55.015625 48.191406 52.617188 48.171875 52.648438 C 48.238281 52.695312 51.964844 50.621094 54.445312 50.554688 C 56.988281 50.554688 59.269531 52.765625 59.265625 52.789062 C 59.335938 52.875 54.292969 55.820312 51.515625 55.363281 Z M 51.515625 55.363281"/><g clip-path="url(#f)"><path fill="#EDBE00" d="M 59.214844 2.988281 C 61.003906 5.414062 62.484375 8.03125 63.566406 10.804688 C 64.648438 13.574219 65.359375 16.472656 65.667969 19.410156 C 65.824219 20.878906 65.875 22.355469 65.835938 23.828125 C 65.792969 25.300781 65.660156 26.769531 65.421875 28.21875 C 65.183594 29.671875 64.859375 31.109375 64.433594 32.511719 C 64.011719 33.917969 63.496094 35.292969 62.886719 36.632812 C 60.460938 41.976562 56.601562 46.675781 51.753906 50.027344 C 51.453125 50.238281 51.144531 50.441406 50.835938 50.640625 C 50.683594 50.734375 50.523438 50.84375 50.375 50.925781 L 50.144531 51.0625 C 50.066406 51.105469 49.988281 51.144531 49.914062 51.1875 C 49.601562 51.355469 49.273438 51.5 48.941406 51.640625 C 48.605469 51.773438 48.265625 51.90625 47.917969 52.019531 C 47.222656 52.257812 46.5 52.464844 45.777344 52.695312 C 45.058594 52.925781 44.328125 53.175781 43.625 53.5 C 43.269531 53.65625 42.925781 53.832031 42.589844 54.019531 C 42.253906 54.210938 41.921875 54.410156 41.605469 54.628906 C 41.289062 54.851562 40.980469 55.082031 40.6875 55.335938 C 40.394531 55.585938 40.117188 55.859375 39.863281 56.144531 C 39.605469 56.433594 39.371094 56.738281 39.152344 57.054688 C 38.9375 57.375 38.746094 57.707031 38.574219 58.042969 C 38.230469 58.722656 37.949219 59.421875 37.679688 60.125 C 38.035156 59.460938 38.378906 58.789062 38.785156 58.164062 C 38.984375 57.847656 39.195312 57.542969 39.429688 57.257812 C 39.660156 56.972656 39.910156 56.703125 40.179688 56.453125 C 41.25 55.449219 42.554688 54.726562 43.921875 54.21875 C 45.289062 53.699219 46.75 53.433594 48.226562 53.019531 C 48.597656 52.917969 48.96875 52.796875 49.335938 52.671875 C 49.703125 52.535156 50.070312 52.394531 50.425781 52.21875 C 50.519531 52.175781 50.609375 52.136719 50.695312 52.089844 L 50.960938 51.949219 C 51.140625 51.855469 51.300781 51.761719 51.46875 51.664062 C 51.800781 51.472656 52.125 51.269531 52.449219 51.066406 C 53.742188 50.242188 54.976562 49.324219 56.132812 48.3125 C 56.425781 48.0625 56.710938 47.800781 56.992188 47.542969 C 57.273438 47.277344 57.550781 47.011719 57.820312 46.738281 C 58.359375 46.191406 58.886719 45.628906 59.386719 45.042969 C 60.390625 43.878906 61.304688 42.632812 62.136719 41.339844 C 62.546875 40.6875 62.9375 40.023438 63.304688 39.347656 L 63.84375 38.324219 L 64.339844 37.28125 C 64.96875 35.875 65.507812 34.425781 65.941406 32.945312 C 66.367188 31.464844 66.699219 29.957031 66.914062 28.433594 C 67.128906 26.90625 67.242188 25.371094 67.242188 23.832031 C 67.242188 22.296875 67.128906 20.757812 66.910156 19.242188 C 66.464844 16.207031 65.585938 13.242188 64.285156 10.484375 C 62.972656 7.746094 61.273438 5.1875 59.214844 2.988281 Z M 59.214844 2.988281"/></g><g clip-path="url(#g)"><path fill="#EDBE00" d="M 47.21875 27.324219 C 47.0625 27.699219 46.863281 28.027344 46.613281 28.308594 C 46.367188 28.585938 46.042969 28.832031 45.640625 29.042969 C 45.238281 29.257812 44.847656 29.429688 44.46875 29.5625 C 44.089844 29.691406 43.632812 29.804688 43.097656 29.90625 C 42.5625 30.003906 42.09375 30.074219 41.691406 30.113281 C 41.289062 30.15625 40.808594 30.1875 40.246094 30.210938 C 39.6875 30.238281 39.253906 30.25 38.941406 30.25 C 38.628906 30.25 38.234375 30.246094 37.753906 30.238281 C 37.277344 30.230469 36.972656 30.226562 36.84375 30.226562 L 36.84375 21.914062 C 36.972656 21.914062 37.363281 21.90625 38.015625 21.890625 C 38.664062 21.871094 39.195312 21.863281 39.605469 21.863281 C 40.015625 21.863281 40.585938 21.890625 41.308594 21.9375 C 42.03125 21.988281 42.640625 22.0625 43.136719 22.160156 C 43.628906 22.257812 44.167969 22.410156 44.75 22.613281 C 45.335938 22.820312 45.808594 23.070312 46.171875 23.363281 C 46.53125 23.660156 46.835938 24.035156 47.082031 24.496094 C 47.332031 24.953125 47.453125 25.476562 47.453125 26.070312 C 47.453125 26.527344 47.375 26.945312 47.21875 27.324219 Z M 36.84375 10.578125 C 36.957031 10.578125 37.28125 10.574219 37.816406 10.566406 C 38.351562 10.558594 38.796875 10.550781 39.148438 10.542969 C 39.503906 10.53125 39.980469 10.554688 40.582031 10.601562 C 41.183594 10.652344 41.6875 10.71875 42.097656 10.800781 C 42.511719 10.882812 42.964844 11.015625 43.457031 11.203125 C 43.949219 11.394531 44.34375 11.621094 44.640625 11.894531 C 44.9375 12.164062 45.1875 12.507812 45.390625 12.925781 C 45.597656 13.34375 45.703125 13.824219 45.703125 14.363281 C 45.703125 14.824219 45.628906 15.242188 45.480469 15.617188 C 45.332031 15.996094 45.109375 16.3125 44.8125 16.566406 C 44.519531 16.820312 44.210938 17.039062 43.898438 17.230469 C 43.585938 17.417969 43.1875 17.570312 42.703125 17.683594 C 42.21875 17.800781 41.792969 17.890625 41.433594 17.953125 C 41.070312 18.019531 40.617188 18.066406 40.074219 18.089844 C 39.53125 18.113281 39.121094 18.132812 38.84375 18.140625 C 38.5625 18.148438 38.179688 18.148438 37.695312 18.140625 C 37.207031 18.132812 36.925781 18.125 36.84375 18.125 Z M 53.84375 21.542969 C 52.890625 20.316406 51.453125 19.472656 49.527344 19.011719 C 51.976562 17.765625 53.054688 15.652344 52.757812 12.667969 C 52.660156 11.585938 52.359375 10.648438 51.859375 9.851562 C 51.355469 9.058594 50.679688 8.417969 49.820312 7.9375 C 48.964844 7.453125 48.035156 7.082031 47.035156 6.828125 C 46.03125 6.574219 44.878906 6.390625 43.578125 6.277344 L 43.578125 0.078125 L 39.777344 0.078125 L 39.777344 6.105469 C 39.121094 6.105469 38.117188 6.121094 36.769531 6.152344 L 36.769531 0.078125 L 32.96875 0.078125 L 32.96875 6.277344 C 32.425781 6.292969 31.628906 6.300781 30.574219 6.300781 L 25.34375 6.277344 L 25.34375 10.308594 L 28.082031 10.308594 C 29.332031 10.308594 30.066406 10.867188 30.277344 11.980469 L 30.277344 19.039062 C 30.441406 19.039062 30.574219 19.046875 30.671875 19.0625 L 30.277344 19.0625 L 30.277344 28.945312 C 30.148438 29.78125 29.667969 30.199219 28.847656 30.199219 L 26.109375 30.199219 L 25.34375 34.699219 L 30.277344 34.699219 C 30.589844 34.699219 31.042969 34.703125 31.636719 34.710938 C 32.226562 34.71875 32.671875 34.726562 32.96875 34.726562 L 32.96875 40.996094 L 36.769531 40.996094 L 36.769531 34.796875 C 37.460938 34.816406 38.464844 34.824219 39.78125 34.824219 L 39.78125 40.996094 L 43.578125 40.996094 L 43.578125 34.726562 C 44.929688 34.660156 46.125 34.539062 47.167969 34.355469 C 48.214844 34.175781 49.214844 33.894531 50.167969 33.507812 C 51.121094 33.121094 51.917969 32.644531 52.5625 32.070312 C 53.203125 31.496094 53.734375 30.765625 54.152344 29.878906 C 54.570312 28.996094 54.839844 27.96875 54.953125 26.804688 C 55.167969 24.527344 54.800781 22.773438 53.84375 21.542969"/></g></svg>